<?xml version="1.0" encoding="utf-8"?>
<!-- Generator: Adobe Illustrator 15.1.0, SVG Export Plug-In . SVG Version: 6.00 Build 0)  -->
<!DOCTYPE svg PUBLIC "-//W3C//DTD SVG 1.1//EN" "http://www.w3.org/Graphics/SVG/1.1/DTD/svg11.dtd">
<svg version="1.1" id="Calque_1_-_copie_2" xmlns="http://www.w3.org/2000/svg" xmlns:xlink="http://www.w3.org/1999/xlink" x="0px"
	 y="0px" width="206.732px" height="157.682px" viewBox="0 0 206.732 157.682" enable-background="new 0 0 206.732 157.682"
	 xml:space="preserve">
<g>
	<path fill="#CCCCCC" d="M0,157.141v-31.396h15.875v1.407v1.433H3.15v11.294h12.249v1.416v1.425H3.15v14.424H1.575L0,157.141
		L0,157.141z"/>
	<path fill="#CCCCCC" d="M20.58,125.742h1.576h8c3.675,0,6.55,0.882,8.621,2.644c2.072,1.761,3.109,4.21,3.109,7.347
		c0,3.122-1.036,5.564-3.109,7.315c-1.604,1.34-3.682,2.177-6.238,2.508l8.978,11.585H39.52h-1.992l-10.753-14.28h3.379
		c2.68,0,4.771-0.628,6.281-1.885c1.505-1.258,2.259-3.006,2.259-5.243c0-2.251-0.753-4.007-2.259-5.273
		c-1.506-1.266-3.602-1.896-6.281-1.896h-6.425v28.579h-1.575h-1.576v-31.396L20.58,125.742L20.58,125.742z"/>
	<path fill="#CCCCCC" d="M50.03,152.976c-3.219-3.132-4.829-6.972-4.829-11.521c0-4.546,1.609-8.393,4.829-11.533
		c3.22-3.146,7.151-4.717,11.793-4.717c4.655,0,8.591,1.571,11.802,4.717c3.212,3.143,4.819,6.987,4.819,11.533
		c0,4.545-1.605,8.387-4.819,11.521c-3.211,3.137-7.146,4.704-11.802,4.704C57.18,157.68,53.25,156.115,50.03,152.976z
		 M71.367,150.978c2.59-2.593,3.885-5.766,3.885-9.521c0-3.762-1.294-6.938-3.885-9.535c-2.591-2.601-5.771-3.896-9.545-3.896
		c-3.759,0-6.936,1.302-9.535,3.896c-2.597,2.599-3.895,5.773-3.895,9.535c0,3.757,1.299,6.93,3.895,9.521
		c2.598,2.591,5.776,3.885,9.535,3.885C65.595,154.862,68.776,153.568,71.367,150.978z"/>
	<path fill="#CCCCCC" d="M98.939,157.68c-4.752,0-8.771-1.567-12.051-4.704c-3.283-3.132-4.923-6.972-4.923-11.521
		c0-4.546,1.658-8.393,4.976-11.533c3.314-3.146,7.372-4.717,12.166-4.717c3.082,0,5.998,0.833,8.757,2.498
		c2.753,1.664,4.714,3.78,5.875,6.352h-3.669c-1.05-1.768-2.581-3.215-4.59-4.342c-2.014-1.126-4.08-1.689-6.207-1.689
		c-3.952,0-7.293,1.302-10.021,3.896c-2.729,2.598-4.094,5.772-4.094,9.534c0,3.758,1.351,6.929,4.053,9.521
		c2.7,2.591,6.01,3.885,9.918,3.885c3.678,0,6.777-1.3,9.309-3.903c1.562-1.619,2.639-3.435,3.231-5.44H94.158v-2.82h21.216
		c-0.264,4.02-1.843,7.448-4.744,10.277C107.451,156.115,103.553,157.68,98.939,157.68z"/>
	<path fill="#CCCCCC" d="M135.955,157.68c-4.755,0-8.77-1.567-12.053-4.704c-3.282-3.132-4.92-6.972-4.92-11.521
		c0-4.546,1.655-8.393,4.975-11.533c3.316-3.146,7.37-4.717,12.165-4.717c3.081,0,6,0.833,8.757,2.498
		c2.754,1.664,4.715,3.78,5.875,6.352h-3.669c-1.05-1.768-2.58-3.215-4.589-4.342c-2.011-1.126-4.082-1.689-6.209-1.689
		c-3.953,0-7.292,1.302-10.019,3.896c-2.729,2.598-4.096,5.772-4.096,9.534c0,3.758,1.351,6.929,4.053,9.521
		c2.703,2.591,6.009,3.885,9.919,3.885c3.675,0,6.776-1.3,9.307-3.903c1.563-1.619,2.639-3.435,3.234-5.44h-17.515v-2.82h21.219
		c-0.266,4.02-1.848,7.448-4.748,10.277C144.464,156.115,140.569,157.68,135.955,157.68z"/>
	<path fill="#CCCCCC" d="M157.531,125.742h1.574h1.577v31.396h-1.577h-1.574V125.742z"/>
	<path fill="#CCCCCC" d="M166.856,157.141v-31.396h17.202v1.407v1.433h-14.054v11.294h13.614v1.416v1.425h-13.614v11.585h14.054
		v1.409v1.43L166.856,157.141L166.856,157.141z"/>
	<path fill="#CCCCCC" d="M202.927,133.745c-0.194-1.756-0.804-3.147-1.825-4.179c-1.023-1.028-2.315-1.544-3.879-1.544
		c-1.604,0-2.959,0.515-4.063,1.537c-1.107,1.021-1.657,2.271-1.657,3.747c0,1.438,0.48,2.594,1.45,3.462
		c0.967,0.87,2.607,1.615,4.931,2.238c3.094,0.845,5.34,2.027,6.746,3.547c1.402,1.521,2.105,3.529,2.105,6.03
		c0,2.543-0.929,4.69-2.776,6.455c-1.854,1.763-4.121,2.641-6.804,2.641c-2.848,0-5.154-0.861-6.927-2.59
		c-1.771-1.728-2.654-3.972-2.654-6.736h3.11c0.232,2.128,0.9,3.742,2.001,4.849c1.1,1.104,2.589,1.655,4.467,1.655
		c1.825,0,3.366-0.589,4.624-1.771s1.887-2.622,1.887-4.319c0-1.769-0.552-3.177-1.653-4.229c-1.089-1.038-2.948-1.915-5.583-2.632
		c-2.792-0.762-4.826-1.813-6.1-3.15c-1.267-1.326-1.895-3.081-1.895-5.266c0-2.32,0.849-4.282,2.548-5.888
		c1.703-1.601,3.778-2.401,6.243-2.401c2.501,0,4.589,0.813,6.262,2.437s2.508,3.657,2.508,6.104L202.927,133.745L202.927,133.745
		L202.927,133.745z"/>
</g>
<g>
	<path d="M114.021,0.983c-0.385,1.647-3.48-0.499-3.828,1.437c8.396,3.895,15.688,8.555,22.967,14.113
		c3.021,2.309,8.838,6.771,8.131,12.678c-0.436,3.621-5.004,6.646-9.088,6.938c-5.313,0.379-12.654-1.424-17.938-2.871
		c-9.779-2.676-21.583-6.265-32.53-8.609c-6.353-1.358-11.97-3.842-12.917-9.809c-0.676-4.25,0.79-6.26,3.107-7.652
		c5.444-3.273,18.975-5.16,28.226-5.744c2.845-0.18,5.563,0.338,8.133,0.719C109.389,0.981,112.303-1.317,114.021,0.983z"/>
	
		<linearGradient id="SVGID_1_" gradientUnits="userSpaceOnUse" x1="103.1477" y1="-438.2478" x2="103.1477" y2="-326.8962" gradientTransform="matrix(1 0 0 -1 0.2246 -304.1938)">
		<stop  offset="0" style="stop-color:#105E26"/>
		<stop  offset="1" style="stop-color:#119B2F"/>
	</linearGradient>
	<path fill="url(#SVGID_1_)" d="M183.37,124.397c-1.303-0.496-4.334-0.562-4.334-0.562s0.805-0.123,0.805-0.928
		c0-0.808-1.67-1.486-3.402-1.486c-1.729,0-6.127-2.104-10.271-3.401c-4.146-1.302-9.967-3.277-9.967-3.277
		c2.166-1.178,3.345-2.537,5.222-4.023s5.981-5.137,8.829-7.057c2.851-1.918,5.882-5.075,7.117-7.614
		c1.237-2.537,0.313-7.428-1.112-8.479c-1.425-1.053-5.017-1.795-7.552-2.657c-0.153-0.056-0.313-0.113-0.479-0.185
		c-0.062-0.021-0.121-0.05-0.185-0.074c-0.111-0.047-0.229-0.094-0.348-0.146c-0.076-0.03-0.158-0.067-0.232-0.104
		c-0.116-0.051-0.229-0.103-0.354-0.153c-0.116-0.056-0.241-0.108-0.364-0.164c-0.144-0.063-0.291-0.131-0.438-0.198
		c-0.122-0.056-0.247-0.111-0.378-0.168c-0.104-0.046-0.209-0.093-0.313-0.138c-0.127-0.06-0.257-0.11-0.388-0.166
		c-0.106-0.047-0.219-0.092-0.328-0.142c-0.133-0.056-0.271-0.106-0.405-0.166c-0.112-0.045-0.228-0.09-0.345-0.133
		c-0.145-0.057-0.286-0.106-0.436-0.164c-0.115-0.043-0.232-0.086-0.354-0.129c-0.152-0.053-0.312-0.104-0.468-0.156
		c-0.119-0.036-0.237-0.077-0.36-0.114c-0.166-0.056-0.341-0.104-0.513-0.149c-0.118-0.033-0.233-0.068-0.354-0.103
		c-0.19-0.054-0.394-0.101-0.592-0.146c-0.104-0.022-0.209-0.053-0.315-0.076c-0.279-0.063-0.566-0.112-0.857-0.166
		c-0.028-0.006-0.061-0.013-0.086-0.018c-0.323-0.053-0.653-0.102-0.987-0.137c-0.101-0.014-0.201-0.02-0.302-0.024
		c-0.237-0.022-0.479-0.046-0.727-0.058c-0.132-0.01-0.269-0.01-0.396-0.016c-0.229-0.006-0.466-0.015-0.703-0.013
		c-0.063,0.001-0.129,0.003-0.19,0.005c-0.345,0.006-0.688,0.021-1.039,0.049c-0.353,0.026-0.688,0.07-1.029,0.121
		c-0.104,0.018-0.2,0.032-0.305,0.051c-0.242,0.041-0.484,0.092-0.726,0.143c-0.099,0.021-0.192,0.041-0.291,0.063
		c-0.304,0.072-0.603,0.151-0.892,0.238c-0.103,0.028-0.194,0.063-0.295,0.096c-0.192,0.063-0.387,0.125-0.571,0.19
		c-0.134,0.05-0.269,0.099-0.396,0.146c-0.144,0.058-0.279,0.111-0.418,0.171c-0.357,0.147-0.71,0.305-1.039,0.467
		c-0.007,0.002-0.013,0.006-0.019,0.008c-0.035-0.077-0.076-0.151-0.119-0.229c-0.002-0.014-0.004-0.024-0.006-0.041
		c-0.024-0.063-0.054-0.127-0.078-0.188c0.008-0.004,0.015-0.008,0.021-0.012c-0.084-0.195-0.183-0.392-0.271-0.584
		c-0.019-0.048-0.035-0.093-0.056-0.138c-0.006-0.008-0.014-0.017-0.021-0.022c-0.622-1.34-1.346-2.66-2.133-3.947
		c-0.213-0.44-0.51-0.838-0.871-1.165c-0.021-0.104-0.037-0.21-0.06-0.316l0,0c-0.041-0.232-0.086-0.479-0.129-0.723
		c-0.051-0.261-0.098-0.527-0.146-0.8c-0.072-0.399-0.146-0.81-0.225-1.229c-0.061-0.319-0.131-0.633-0.213-0.935
		c-0.027-0.099-0.063-0.19-0.094-0.286c-0.063-0.199-0.117-0.396-0.188-0.587c-0.043-0.11-0.093-0.215-0.138-0.323
		c-0.065-0.164-0.135-0.33-0.207-0.485c-0.055-0.113-0.114-0.224-0.174-0.33c-0.072-0.144-0.146-0.285-0.228-0.42
		c-0.065-0.113-0.142-0.224-0.211-0.33c-0.078-0.121-0.151-0.244-0.233-0.359c-0.08-0.11-0.166-0.215-0.248-0.321
		c-0.08-0.104-0.156-0.209-0.24-0.308c-0.096-0.108-0.188-0.209-0.287-0.313c-0.077-0.086-0.157-0.174-0.239-0.256
		c-0.104-0.104-0.217-0.203-0.324-0.303c-0.075-0.068-0.147-0.141-0.229-0.205c-0.118-0.102-0.243-0.195-0.368-0.289
		c-0.068-0.055-0.142-0.104-0.209-0.158c-0.138-0.097-0.271-0.186-0.412-0.271c-0.063-0.038-0.123-0.078-0.186-0.115
		c-0.148-0.09-0.302-0.172-0.452-0.25c-0.053-0.026-0.104-0.057-0.153-0.081c-0.162-0.08-0.324-0.151-0.487-0.224
		c-0.041-0.019-0.085-0.035-0.125-0.056c-0.173-0.065-0.349-0.129-0.521-0.186c-0.03-0.012-0.063-0.021-0.098-0.031
		c-0.181-0.057-0.356-0.104-0.535-0.146c-0.024-0.006-0.053-0.014-0.076-0.02c-0.186-0.041-0.364-0.07-0.545-0.099
		c-0.021-0.003-0.041-0.006-0.063-0.01c-0.182-0.022-0.358-0.039-0.536-0.047c-0.097-0.007-0.189-0.017-0.281-0.017
		c-0.153,0-0.308,0.008-0.455,0.021v-0.129c0.677-0.313,0.988-0.511,0.988-0.511c1.815-1.317,7.266-9.735,7.266-13.2
		c0-3.469-6.577-12.051-6.577-12.051c0.827-1.566,0.938-3.443,0.758-5.168c-1.972,1.459-4.453,2.393-6.767,2.559
		c-0.512,0.035-1.057,0.055-1.614,0.055c-5.281,0-11.768-1.59-16.82-2.975c-2.483-0.683-5.063-1.408-7.793-2.183
		c-7.75-2.188-16.531-4.67-24.657-6.411c-2.863-0.611-6.26-1.568-9.016-3.404c-0.05,0.045-0.102,0.091-0.15,0.136
		c-0.032,0.03-0.063,0.062-0.099,0.093c-0.081,0.076-0.162,0.152-0.241,0.229c-0.039,0.037-0.077,0.075-0.113,0.111
		c-0.071,0.069-0.145,0.141-0.215,0.209c-0.04,0.041-0.077,0.079-0.116,0.119c-0.065,0.067-0.133,0.136-0.195,0.201
		c-0.039,0.04-0.078,0.081-0.117,0.121c-0.063,0.068-0.128,0.136-0.189,0.203c-0.034,0.035-0.066,0.072-0.103,0.105
		c-0.069,0.074-0.137,0.148-0.202,0.225c-0.023,0.025-0.052,0.057-0.077,0.084c-0.09,0.102-0.178,0.199-0.262,0.297
		c-0.008,0.01-0.017,0.02-0.022,0.027c-0.076,0.088-0.149,0.174-0.224,0.258c-0.025,0.03-0.053,0.063-0.08,0.095
		c-0.051,0.06-0.101,0.119-0.147,0.177c-0.03,0.037-0.063,0.073-0.091,0.108c-0.041,0.05-0.081,0.099-0.12,0.146
		c-0.029,0.036-0.061,0.071-0.087,0.106c-0.039,0.048-0.077,0.095-0.112,0.14c-0.025,0.03-0.051,0.063-0.074,0.093
		c-0.034,0.04-0.064,0.081-0.1,0.122c-0.024,0.031-0.055,0.064-0.076,0.098c-0.021,0.023-0.041,0.052-0.063,0.076
		c-0.072,0.092-0.142,0.179-0.199,0.252c-1.319,1.647,0.328,2.641,0,3.467c-0.33,0.824-2.524,6.438-0.521,10.23
		c0,0-6.577,8.582-6.577,12.051c0,3.467,5.444,11.888,7.26,13.208c0,0,0.014,0.006,0.026,0.017c0.004,0.003,0.013,0.008,0.021,0.012
		c0.018,0.014,0.036,0.022,0.064,0.041c0.01,0.006,0.026,0.018,0.039,0.021c0.03,0.019,0.063,0.037,0.104,0.062
		c0.02,0.014,0.041,0.021,0.063,0.033c0.043,0.022,0.091,0.051,0.145,0.077c0.024,0.015,0.057,0.029,0.084,0.045
		c0.058,0.029,0.117,0.062,0.186,0.095c0.034,0.02,0.067,0.034,0.104,0.055c0.073,0.033,0.154,0.072,0.237,0.111
		c0.039,0.021,0.075,0.036,0.116,0.059c0.007,0.002,0.015,0.006,0.021,0.01c-0.111-0.008-0.227-0.02-0.343-0.02
		c-0.192,0-0.394,0.014-0.595,0.029c-0.002,0.002-0.004,0.004-0.005,0.006c-0.574,0.059-1.171,0.19-1.771,0.403h-0.002
		c-0.173,0.063-0.345,0.134-0.518,0.209c-0.035,0.017-0.07,0.029-0.105,0.045c-0.148,0.068-0.301,0.146-0.449,0.224
		c-0.058,0.029-0.111,0.061-0.168,0.092c-0.136,0.07-0.269,0.15-0.398,0.234c-0.07,0.043-0.142,0.086-0.21,0.133
		c-0.121,0.08-0.239,0.164-0.358,0.252c-0.079,0.061-0.156,0.115-0.232,0.18c-0.108,0.086-0.216,0.174-0.321,0.267
		c-0.084,0.071-0.167,0.147-0.25,0.226c-0.097,0.091-0.193,0.185-0.287,0.277c-0.086,0.088-0.17,0.178-0.254,0.271
		c-0.087,0.096-0.173,0.188-0.256,0.293c-0.085,0.103-0.167,0.209-0.25,0.313c-0.077,0.104-0.153,0.201-0.229,0.31
		c-0.083,0.114-0.159,0.237-0.236,0.36c-0.066,0.104-0.136,0.209-0.197,0.316c-0.078,0.135-0.15,0.271-0.223,0.416
		c-0.058,0.105-0.113,0.213-0.165,0.324c-0.072,0.152-0.14,0.314-0.203,0.479c-0.044,0.107-0.092,0.213-0.133,0.322
		c-0.067,0.186-0.126,0.379-0.187,0.572c-0.028,0.096-0.063,0.188-0.09,0.287c-0.081,0.295-0.151,0.602-0.209,0.918
		c-0.131,0.721-0.255,1.406-0.375,2.068c-0.336,0.348-0.602,0.752-0.782,1.194c-1.055,1.644-2.017,3.354-2.81,5.093
		c-0.205,0.313-0.363,0.657-0.467,1.024c-0.327-0.16-0.677-0.313-1.031-0.463c-0.14-0.062-0.277-0.115-0.419-0.173
		c-0.131-0.051-0.265-0.1-0.396-0.146c-0.187-0.065-0.378-0.129-0.57-0.19c-0.1-0.029-0.194-0.063-0.295-0.096
		c-0.29-0.087-0.589-0.166-0.892-0.238c-0.096-0.021-0.194-0.041-0.291-0.063c-0.238-0.051-0.479-0.102-0.724-0.143
		c-0.104-0.019-0.201-0.033-0.306-0.051c-0.338-0.051-0.68-0.095-1.028-0.121c-0.354-0.025-0.698-0.043-1.039-0.049
		c-0.064-0.002-0.129-0.004-0.193-0.005c-0.236-0.002-0.469,0.007-0.7,0.013c-0.134,0.004-0.27,0.007-0.398,0.016
		c-0.242,0.012-0.479,0.031-0.714,0.057c-0.104,0.01-0.211,0.016-0.313,0.025c-0.334,0.037-0.663,0.084-0.983,0.137
		c-0.044,0.008-0.087,0.018-0.131,0.025c-0.274,0.047-0.55,0.1-0.813,0.154c-0.116,0.024-0.229,0.057-0.34,0.08
		c-0.19,0.047-0.383,0.09-0.567,0.143c-0.125,0.031-0.248,0.068-0.371,0.104c-0.167,0.048-0.334,0.095-0.496,0.146
		c-0.127,0.039-0.251,0.078-0.375,0.118c-0.15,0.054-0.305,0.104-0.453,0.152c-0.124,0.045-0.245,0.088-0.365,0.133
		c-0.144,0.056-0.283,0.104-0.423,0.158c-0.118,0.047-0.234,0.092-0.354,0.139c-0.134,0.058-0.269,0.107-0.398,0.162
		c-0.111,0.047-0.226,0.097-0.335,0.144c-0.129,0.055-0.255,0.106-0.379,0.164c-0.106,0.045-0.215,0.092-0.317,0.14
		c-0.127,0.057-0.251,0.11-0.374,0.166c-0.151,0.067-0.304,0.137-0.446,0.2c-0.122,0.056-0.245,0.108-0.361,0.162
		c-0.121,0.056-0.236,0.104-0.354,0.153c-0.078,0.035-0.158,0.07-0.233,0.104c-0.12,0.052-0.23,0.099-0.346,0.146
		c-0.063,0.024-0.124,0.055-0.185,0.074c-0.167,0.067-0.328,0.129-0.48,0.184c-2.538,0.863-6.127,1.605-7.552,2.658
		c-1.423,1.055-2.354,5.941-1.113,8.479c1.237,2.537,4.271,5.694,7.118,7.614c2.847,1.918,6.952,5.566,8.831,7.055
		c1.877,1.488,3.053,2.85,5.22,4.025c0,0-5.818,1.979-9.965,3.277c-4.147,1.299-8.542,3.399-10.274,3.399
		c-1.729,0-3.402,0.687-3.402,1.485c0,0.806,0.806,0.929,0.806,0.929s-3.033,0.063-4.333,0.563c-1.3,0.49-1.114,2.408-0.495,2.602
		c0.04,0.01,0.086,0.021,0.144,0.031c0.002,0,0.003,0,0.003,0c0.057,0.014,0.119,0.021,0.193,0.027c0.002,0,0.005,0,0.009,0
		c0.072,0.012,0.156,0.021,0.251,0.021c0.004,0,0.009,0,0.014,0c0.094,0.006,0.197,0.008,0.313,0.008c0.013,0,0.021,0,0.032,0
		c0.073,0,0.149-0.002,0.231-0.004c0.02,0,0.038-0.002,0.058-0.002c0.094-0.004,0.193-0.01,0.301-0.019
		c0.017,0,0.031-0.002,0.046-0.002c0.098-0.006,0.198-0.014,0.307-0.021c0.023-0.002,0.051-0.004,0.074-0.007
		c0.125-0.014,0.255-0.024,0.395-0.038c0.014-0.002,0.029-0.005,0.044-0.009c0.126-0.014,0.26-0.028,0.396-0.049
		c0.032-0.004,0.064-0.01,0.101-0.014c0.155-0.021,0.318-0.043,0.49-0.07c0.018-0.002,0.034-0.006,0.052-0.008
		c0.157-0.021,0.325-0.051,0.496-0.08c0.043-0.008,0.085-0.014,0.128-0.021c0.19-0.033,0.391-0.067,0.601-0.106
		c0.02-0.005,0.034-0.007,0.052-0.011c0.194-0.037,0.399-0.075,0.611-0.119c0.053-0.01,0.104-0.021,0.155-0.026
		c0.232-0.051,0.473-0.101,0.727-0.148c0.014-0.002,0.026-0.006,0.039-0.009c0.238-0.056,0.487-0.106,0.743-0.166
		c0.064-0.019,0.129-0.028,0.195-0.043c0.273-0.063,0.558-0.13,0.854-0.2c0.011-0.002,0.021-0.004,0.029-0.007
		c0.286-0.067,0.584-0.146,0.89-0.22c0.075-0.021,0.152-0.037,0.229-0.062c0.323-0.082,0.653-0.166,1-0.256
		c0.004-0.002,0.009-0.002,0.014-0.005c0.338-0.089,0.692-0.184,1.054-0.278c0.09-0.021,0.179-0.047,0.269-0.067
		c0.373-0.104,0.755-0.205,1.151-0.314c0.37-0.105,0.729-0.189,1.083-0.271c0.102-0.021,0.198-0.039,0.301-0.063
		c0.271-0.06,0.542-0.104,0.806-0.146c0.078-0.012,0.159-0.025,0.236-0.037c0.329-0.045,0.646-0.08,0.96-0.104
		c0.063-0.004,0.127-0.006,0.189-0.011c0.252-0.018,0.5-0.024,0.739-0.026c0.044,0,0.092-0.006,0.136-0.006
		c0.032,0,0.063,0.004,0.097,0.006c0.338,0.002,0.666,0.021,0.979,0.043c0.05,0.005,0.096,0.015,0.146,0.019
		c0.298,0.027,0.587,0.065,0.862,0.115c0.031,0.01,0.065,0.017,0.1,0.021c0.29,0.055,0.563,0.12,0.831,0.194
		c0.053,0.017,0.104,0.025,0.155,0.045c0.261,0.076,0.51,0.162,0.742,0.259c0.031,0.012,0.062,0.021,0.091,0.038
		c0.224,0.091,0.435,0.188,0.635,0.293c0.024,0.015,0.056,0.021,0.083,0.041c0.207,0.105,0.397,0.229,0.583,0.351
		c0.034,0.024,0.068,0.05,0.104,0.072c0.179,0.125,0.349,0.252,0.502,0.383c0.019,0.015,0.029,0.026,0.045,0.039
		c0.146,0.127,0.279,0.258,0.403,0.39c0.019,0.021,0.039,0.039,0.056,0.061c0.125,0.137,0.235,0.271,0.337,0.411
		c0.021,0.026,0.036,0.054,0.058,0.079c0.097,0.141,0.184,0.279,0.255,0.418c0.005,0.012,0.009,0.021,0.014,0.029
		c0.068,0.133,0.122,0.267,0.167,0.396c0.009,0.021,0.02,0.045,0.023,0.064c0.042,0.131,0.068,0.258,0.087,0.381
		c0.003,0.024,0.005,0.05,0.008,0.072c0.014,0.125,0.018,0.247,0.005,0.362c0,0.004-0.002,0.01-0.003,0.015
		c-0.012,0.11-0.041,0.215-0.077,0.313c-0.007,0.019-0.012,0.036-0.02,0.055c-0.041,0.097-0.097,0.185-0.159,0.267
		c-0.013,0.018-0.027,0.029-0.041,0.045c-0.072,0.08-0.153,0.154-0.251,0.217c-2.104,1.299-5.632,2.043-5.57,3.65
		c0.003,0.09,0.024,0.17,0.056,0.246c0.008,0.021,0.019,0.041,0.026,0.063c0.028,0.057,0.063,0.105,0.105,0.152
		c0.014,0.016,0.022,0.031,0.039,0.045c0.06,0.059,0.129,0.106,0.21,0.147c0.015,0.009,0.031,0.015,0.049,0.021
		c0.071,0.029,0.147,0.063,0.231,0.087c0.029,0.01,0.062,0.018,0.094,0.021c0.091,0.021,0.188,0.037,0.293,0.05
		c0.02,0.006,0.039,0.01,0.06,0.012c0.121,0.014,0.253,0.016,0.394,0.016c0.185-0.002,0.381-0.016,0.592-0.037
		c0.039-0.004,0.082-0.012,0.121-0.016c0.177-0.023,0.358-0.053,0.554-0.09c0.078-0.019,0.158-0.029,0.238-0.053
		c0.167-0.031,0.34-0.07,0.518-0.115c0.085-0.021,0.17-0.043,0.257-0.066c0.208-0.059,0.423-0.121,0.644-0.189
		c0.057-0.02,0.109-0.033,0.168-0.053c0.273-0.092,0.558-0.191,0.845-0.301c0.079-0.031,0.16-0.064,0.239-0.098
		c0.215-0.086,0.432-0.178,0.649-0.271c0.104-0.043,0.205-0.09,0.311-0.135c0.212-0.098,0.425-0.195,0.64-0.3
		c0.097-0.048,0.191-0.093,0.289-0.142c0.308-0.151,0.616-0.313,0.926-0.48c3.899-2.148,11.824-5.578,19.11-6.729
		c0-0.011-0.002-0.021-0.001-0.026c0.059,0.002,0.115,0.009,0.173,0.009c0.108,0.002,0.215-0.004,0.322-0.016
		c0,0.127-0.006,0.252-0.023,0.375c0,0.004-0.001,0.009-0.002,0.016c-0.02,0.137-0.049,0.271-0.093,0.409
		c-0.387,1.226-2.174,1.099-1.665,2.474c0.042,0.11,0.098,0.223,0.157,0.33c0.016,0.028,0.032,0.057,0.049,0.086
		c0.059,0.096,0.121,0.188,0.189,0.279c0.011,0.014,0.019,0.021,0.026,0.038c0.08,0.103,0.169,0.196,0.263,0.293
		c0.021,0.021,0.048,0.046,0.069,0.063c0.081,0.078,0.164,0.15,0.251,0.224c0.021,0.018,0.038,0.029,0.06,0.049
		c0.104,0.079,0.212,0.148,0.318,0.219c0.024,0.014,0.05,0.025,0.073,0.041c0.092,0.053,0.187,0.1,0.28,0.141
		c0.022,0.012,0.051,0.023,0.077,0.033c0.11,0.045,0.226,0.082,0.338,0.107c0.02,0.004,0.04,0.006,0.059,0.01
		c0.096,0.02,0.188,0.03,0.28,0.033c0.029,0,0.06,0.002,0.09,0.002c0.051-0.002,0.102-0.01,0.15-0.018
		c0.033-0.006,0.067-0.011,0.104-0.019c0.05-0.015,0.099-0.028,0.146-0.047c0.027-0.015,0.063-0.021,0.092-0.035
		c0.05-0.024,0.098-0.062,0.145-0.092c0.023-0.021,0.049-0.027,0.071-0.05c0.067-0.057,0.131-0.116,0.188-0.194
		c0.882-1.162,0.777-2.533,0.777-2.533s0.007-0.01,0.021-0.021c0.004-0.008,0.009-0.012,0.016-0.021
		c0.011-0.014,0.025-0.028,0.043-0.049c0.01-0.015,0.021-0.022,0.031-0.035c0.02-0.021,0.041-0.047,0.064-0.071
		c0.017-0.017,0.027-0.025,0.045-0.05c0.026-0.024,0.06-0.059,0.092-0.09c0.018-0.021,0.032-0.035,0.054-0.056
		c0.052-0.055,0.105-0.104,0.169-0.157c0.008-0.009,0.018-0.019,0.026-0.022c0.056-0.052,0.112-0.103,0.179-0.15
		c0.022-0.021,0.051-0.041,0.076-0.063c0.05-0.04,0.101-0.079,0.152-0.12c0.03-0.021,0.063-0.045,0.098-0.064
		c0.053-0.039,0.104-0.076,0.163-0.113c0.033-0.023,0.067-0.045,0.104-0.068c0.063-0.037,0.125-0.07,0.189-0.106
		c0.031-0.021,0.063-0.037,0.099-0.06c0.099-0.053,0.199-0.104,0.303-0.146c0.019-0.006,0.032-0.015,0.049-0.021
		c0.092-0.037,0.183-0.067,0.273-0.102c0.039-0.016,0.079-0.023,0.119-0.033c0.074-0.02,0.146-0.041,0.222-0.057
		c0.045-0.012,0.092-0.02,0.138-0.023c0.072-0.012,0.147-0.02,0.225-0.021c0.047-0.007,0.093-0.013,0.14-0.015
		c0.022,0,0.045-0.004,0.067-0.004c0.09,0,0.181,0.006,0.271,0.021c0.011,0,0.021,0.004,0.026,0.004
		c0.11,0.012,0.223,0.035,0.334,0.063c0.032,0.014,0.064,0.021,0.098,0.026c0.121,0.035,0.245,0.078,0.368,0.136
		c2.23,1.022,3.957,1.436,6.065,2.43c2.106,0.996,2.896,2.053,2.896,2.053s0.573,2.859,2.212,3.297
		c0.093,0.021,0.183,0.039,0.271,0.047c0.021,0.002,0.044,0.002,0.064,0.004c0.062,0.002,0.116,0,0.178-0.004
		c0.034-0.002,0.071-0.004,0.104-0.01c0.055-0.01,0.104-0.021,0.155-0.033c0.033-0.008,0.063-0.018,0.097-0.025
		c0.056-0.018,0.104-0.041,0.153-0.063c0.024-0.016,0.054-0.021,0.08-0.035c0.059-0.031,0.113-0.068,0.167-0.107
		c0.014-0.012,0.029-0.02,0.044-0.026c0.064-0.054,0.129-0.107,0.188-0.168c0.016-0.019,0.023-0.031,0.039-0.048
		c0.043-0.049,0.085-0.098,0.123-0.146c0.021-0.021,0.033-0.053,0.053-0.077c0.026-0.046,0.06-0.091,0.085-0.138
		c0.018-0.031,0.027-0.063,0.046-0.094c0.021-0.047,0.043-0.093,0.063-0.14c0.016-0.032,0.024-0.065,0.036-0.102
		c0.018-0.047,0.03-0.092,0.042-0.141c0.01-0.035,0.019-0.07,0.023-0.105c0.01-0.047,0.017-0.094,0.021-0.141
		c0.004-0.035,0.01-0.072,0.012-0.107c0.003-0.047,0.003-0.094,0.002-0.141c-0.001-0.035-0.002-0.07-0.006-0.105
		c-0.005-0.047-0.013-0.092-0.021-0.139c-0.006-0.033-0.012-0.066-0.021-0.104c-0.014-0.047-0.026-0.093-0.046-0.138
		c-0.011-0.03-0.021-0.063-0.032-0.092c-0.021-0.047-0.051-0.097-0.075-0.142c-0.018-0.021-0.026-0.049-0.041-0.067
		c-0.049-0.065-0.104-0.131-0.161-0.188c-1.018-0.978-1.104-1.164-1.202-1.688c-0.1-0.527,0.791-3.123,1.315-3.813
		c0.027-0.037,0.065-0.08,0.108-0.123c0.02-0.019,0.036-0.035,0.056-0.056c0.026-0.026,0.06-0.06,0.091-0.086
		c0.023-0.022,0.054-0.049,0.083-0.074c0.007-0.006,0.014-0.01,0.02-0.016c0.043-0.037,0.092-0.078,0.142-0.117
		c0.09-0.004,0.181-0.012,0.271-0.021c0.163,0.028,0.325,0.053,0.487,0.061c-0.01,0.006-0.021,0.012-0.026,0.018
		c3.655,0.275,7.896,0.4,12.841,0.32c5.192,0.084,9.616-0.061,13.409-0.363c0.242,0.053,0.492,0.082,0.748,0.084
		c0.109,0,0.224-0.006,0.332-0.016c0.017,0.014,0.027,0.021,0.043,0.037c0.031,0.025,0.063,0.055,0.092,0.082
		c0.035,0.027,0.064,0.061,0.1,0.092c0.02,0.018,0.038,0.037,0.055,0.055c0.047,0.047,0.088,0.09,0.115,0.129
		c0.524,0.689,1.416,3.285,1.317,3.813c-0.103,0.522-0.188,0.713-1.201,1.688c-0.063,0.062-0.114,0.123-0.161,0.189
		c-0.018,0.02-0.027,0.047-0.041,0.069c-0.025,0.046-0.056,0.093-0.076,0.14c-0.015,0.029-0.021,0.061-0.031,0.092
		c-0.02,0.045-0.03,0.09-0.047,0.137c-0.01,0.033-0.014,0.066-0.021,0.103c-0.009,0.047-0.017,0.092-0.021,0.14
		c-0.006,0.034-0.006,0.069-0.008,0.106c0,0.045,0,0.092,0.002,0.139c0.002,0.035,0.008,0.072,0.014,0.109
		c0.004,0.045,0.013,0.092,0.021,0.139c0.008,0.035,0.018,0.07,0.021,0.105c0.013,0.049,0.023,0.094,0.041,0.139
		c0.013,0.035,0.021,0.067,0.037,0.104c0.019,0.05,0.039,0.094,0.062,0.14c0.017,0.028,0.028,0.063,0.048,0.096
		c0.023,0.045,0.057,0.09,0.084,0.133c0.021,0.027,0.032,0.057,0.055,0.082c0.035,0.05,0.076,0.097,0.117,0.146
		c0.018,0.016,0.026,0.033,0.043,0.051c0.063,0.061,0.123,0.117,0.188,0.168c0.015,0.012,0.03,0.02,0.047,0.031
		c0.054,0.036,0.104,0.072,0.164,0.104c0.024,0.016,0.056,0.023,0.08,0.035c0.052,0.021,0.101,0.047,0.151,0.063
		c0.029,0.013,0.063,0.021,0.099,0.023c0.052,0.015,0.103,0.025,0.153,0.033c0.033,0.006,0.07,0.008,0.107,0.01
		c0.059,0.004,0.114,0.007,0.174,0.004c0.022-0.002,0.045-0.002,0.065-0.004c0.088-0.008,0.179-0.021,0.271-0.047
		c1.641-0.436,2.211-3.297,2.211-3.297s0.787-1.055,2.896-2.053c2.104-0.994,3.834-1.402,6.063-2.431
		c0.123-0.057,0.246-0.1,0.369-0.135c0.03-0.01,0.063-0.019,0.1-0.025c0.109-0.024,0.227-0.051,0.334-0.063
		c0.011,0,0.021-0.004,0.025-0.004c0.094-0.012,0.188-0.021,0.272-0.021c0.021,0,0.045,0.006,0.065,0.006
		c0.047,0.003,0.094,0.009,0.139,0.013c0.076,0.006,0.148,0.014,0.227,0.021c0.047,0.011,0.092,0.019,0.139,0.023
		c0.074,0.016,0.148,0.035,0.226,0.057c0.039,0.012,0.078,0.021,0.116,0.033c0.097,0.029,0.188,0.063,0.277,0.104
		c0.019,0.008,0.026,0.012,0.041,0.018c0.104,0.045,0.207,0.096,0.312,0.146c0.028,0.02,0.062,0.031,0.095,0.055
		c0.063,0.037,0.131,0.075,0.191,0.113c0.031,0.021,0.064,0.043,0.104,0.063c0.061,0.037,0.112,0.074,0.168,0.115
		c0.03,0.021,0.063,0.043,0.092,0.064c0.06,0.041,0.106,0.082,0.16,0.123c0.022,0.021,0.047,0.039,0.069,0.061
		c0.065,0.055,0.132,0.107,0.188,0.162c0.006,0.004,0.015,0.008,0.019,0.012c0.063,0.057,0.121,0.11,0.174,0.164
		c0.019,0.018,0.033,0.03,0.052,0.049c0.03,0.033,0.063,0.066,0.092,0.098c0.021,0.021,0.031,0.029,0.047,0.05
		c0.023,0.021,0.047,0.053,0.064,0.067c0.012,0.017,0.021,0.023,0.028,0.033c0.021,0.021,0.03,0.037,0.047,0.051
		c0.007,0.01,0.011,0.021,0.015,0.021c0.014,0.014,0.021,0.02,0.021,0.02s-0.104,1.371,0.774,2.533
		c0.062,0.078,0.121,0.146,0.188,0.197c0.021,0.02,0.047,0.029,0.071,0.049c0.048,0.033,0.093,0.063,0.145,0.09
		c0.028,0.016,0.063,0.022,0.092,0.035c0.047,0.018,0.098,0.035,0.146,0.047c0.032,0.008,0.065,0.012,0.104,0.018
		c0.049,0.013,0.103,0.019,0.149,0.021c0.028,0,0.062-0.002,0.09-0.002c0.093-0.002,0.185-0.019,0.278-0.033
		c0.021-0.004,0.039-0.006,0.063-0.01c0.11-0.024,0.229-0.063,0.336-0.106c0.026-0.011,0.055-0.021,0.08-0.033
		c0.092-0.041,0.188-0.088,0.276-0.142c0.021-0.014,0.049-0.026,0.073-0.041c0.107-0.064,0.218-0.139,0.316-0.219
		c0.021-0.021,0.041-0.031,0.063-0.049c0.087-0.068,0.171-0.146,0.248-0.222c0.021-0.021,0.05-0.049,0.07-0.065
		c0.094-0.094,0.182-0.188,0.264-0.291c0.011-0.019,0.02-0.027,0.025-0.041c0.069-0.09,0.131-0.188,0.188-0.276
		c0.019-0.026,0.034-0.058,0.049-0.087c0.063-0.107,0.117-0.219,0.158-0.329c0.51-1.375-1.276-1.248-1.666-2.474
		c-0.039-0.127-0.065-0.252-0.087-0.379c-0.002-0.011-0.004-0.021-0.006-0.025c-0.021-0.135-0.026-0.27-0.026-0.405
		c0.177,0.05,0.354,0.086,0.532,0.106c7.186,1.201,14.908,4.554,18.746,6.664c0.311,0.17,0.615,0.33,0.927,0.481
		c0.097,0.05,0.188,0.095,0.284,0.14c0.218,0.104,0.431,0.205,0.646,0.301c0.104,0.047,0.203,0.093,0.307,0.136
		c0.224,0.097,0.438,0.188,0.654,0.271c0.078,0.03,0.158,0.063,0.233,0.094c0.289,0.111,0.569,0.213,0.849,0.303
		c0.059,0.021,0.108,0.033,0.166,0.054c0.219,0.067,0.436,0.139,0.645,0.188c0.089,0.025,0.173,0.045,0.259,0.068
		c0.179,0.045,0.351,0.084,0.519,0.121c0.08,0.016,0.16,0.031,0.238,0.047c0.189,0.037,0.377,0.063,0.555,0.088
		c0.039,0.004,0.082,0.012,0.119,0.016c0.211,0.023,0.407,0.035,0.592,0.037c0.144,0,0.271-0.002,0.396-0.014
		c0.021-0.002,0.039-0.006,0.062-0.009c0.104-0.013,0.201-0.026,0.293-0.05c0.031-0.008,0.063-0.017,0.094-0.021
		c0.084-0.023,0.16-0.053,0.232-0.086c0.018-0.008,0.032-0.016,0.047-0.021c0.082-0.041,0.149-0.092,0.211-0.145
		c0.019-0.018,0.024-0.029,0.039-0.045c0.043-0.05,0.078-0.104,0.104-0.154c0.011-0.021,0.021-0.039,0.024-0.063
		c0.029-0.073,0.051-0.153,0.058-0.243c0.063-1.609-3.468-2.355-5.569-3.652c-0.099-0.063-0.181-0.135-0.25-0.215
		c-0.019-0.02-0.029-0.029-0.043-0.047c-0.063-0.08-0.117-0.168-0.158-0.27c-0.008-0.019-0.015-0.035-0.021-0.058
		c-0.034-0.1-0.063-0.201-0.075-0.313c0-0.006-0.002-0.012-0.002-0.018c-0.016-0.113-0.009-0.234,0.005-0.359
		c0.004-0.022,0.006-0.049,0.008-0.072c0.02-0.122,0.047-0.25,0.088-0.383c0.007-0.021,0.018-0.045,0.021-0.065
		c0.046-0.129,0.1-0.258,0.164-0.392c0.007-0.012,0.012-0.021,0.018-0.032c0.071-0.14,0.16-0.275,0.256-0.414
		c0.021-0.029,0.037-0.058,0.059-0.084c0.104-0.14,0.213-0.273,0.336-0.41c0.021-0.021,0.037-0.039,0.061-0.063
		c0.123-0.131,0.256-0.258,0.4-0.385c0.016-0.014,0.026-0.027,0.046-0.041c0.15-0.131,0.321-0.258,0.503-0.381
		c0.033-0.025,0.066-0.049,0.104-0.074c0.186-0.121,0.375-0.237,0.582-0.35c0.026-0.018,0.06-0.027,0.084-0.041
		c0.198-0.105,0.409-0.203,0.634-0.293c0.027-0.018,0.061-0.027,0.09-0.039c0.233-0.094,0.483-0.181,0.742-0.256
		c0.054-0.021,0.104-0.031,0.156-0.045c0.268-0.076,0.539-0.146,0.828-0.197c0.033-0.006,0.064-0.012,0.1-0.021
		c0.277-0.051,0.564-0.09,0.863-0.115c0.048-0.008,0.096-0.014,0.146-0.02c0.313-0.021,0.645-0.041,0.979-0.043
		c0.033-0.002,0.063-0.007,0.1-0.007c0.043,0,0.091,0.007,0.137,0.007c0.238,0.002,0.484,0.015,0.738,0.026
		c0.063,0.004,0.127,0.006,0.188,0.01c0.313,0.025,0.634,0.064,0.961,0.105c0.076,0.01,0.158,0.022,0.236,0.034
		c0.262,0.041,0.529,0.091,0.805,0.146c0.104,0.021,0.199,0.039,0.302,0.063c0.354,0.078,0.714,0.164,1.085,0.271
		c0.396,0.111,0.775,0.215,1.15,0.313c0.09,0.022,0.179,0.053,0.27,0.07c0.357,0.104,0.715,0.19,1.054,0.278
		c0.007,0.002,0.011,0.002,0.017,0.004c0.346,0.09,0.678,0.175,0.998,0.256c0.078,0.021,0.154,0.039,0.229,0.063
		c0.307,0.071,0.604,0.146,0.891,0.22c0.01,0.002,0.021,0.004,0.027,0.006c0.299,0.072,0.578,0.139,0.854,0.201
		c0.065,0.014,0.132,0.025,0.195,0.043c0.256,0.059,0.506,0.109,0.742,0.166c0.014,0.002,0.024,0.006,0.039,0.008
		c0.252,0.055,0.492,0.104,0.727,0.15c0.054,0.012,0.104,0.02,0.155,0.025c0.212,0.043,0.416,0.082,0.61,0.118
		c0.02,0.005,0.034,0.007,0.051,0.011c0.212,0.039,0.408,0.073,0.604,0.106c0.043,0.008,0.086,0.015,0.129,0.021
		c0.173,0.029,0.337,0.06,0.496,0.08c0.018,0.002,0.033,0.006,0.05,0.008c0.173,0.027,0.337,0.052,0.491,0.07
		c0.033,0.004,0.064,0.01,0.102,0.014c0.141,0.021,0.271,0.035,0.396,0.052c0.016,0.002,0.028,0.004,0.045,0.006
		c0.139,0.015,0.271,0.024,0.395,0.039c0.023,0.002,0.053,0.004,0.073,0.006c0.106,0.011,0.21,0.021,0.309,0.021
		c0.017,0,0.03,0.002,0.048,0.002c0.104,0.011,0.207,0.015,0.301,0.019c0.021,0,0.039,0.002,0.061,0.002
		c0.08,0.002,0.157,0.004,0.229,0.004c0.011,0,0.021,0,0.03,0c0.114,0,0.224-0.002,0.313-0.008c0.005,0,0.013,0,0.017,0
		c0.096-0.006,0.18-0.017,0.25-0.021c0.006,0,0.008,0,0.01,0c0.072-0.012,0.139-0.021,0.191-0.026c0.002,0,0.002,0,0.004,0
		c0.059-0.015,0.104-0.022,0.145-0.033C184.481,126.808,184.669,124.89,183.37,124.397z M70.534,66.229v0.041l-0.024-0.053
		C70.518,66.222,70.526,66.226,70.534,66.229z"/>
</g>
</svg>
